<mxfile host="app.diagrams.net" agent="Mozilla/5.0 (Windows NT 10.0; Win64; x64) AppleWebKit/537.36 (KHTML, like Gecko) Chrome/136.0.0.0 Safari/537.36" version="27.0.4">
  <diagram name="第 1 页" id="d3qp3cm_-RvscZHG2NyW">
    <mxGraphModel dx="902" dy="464" grid="1" gridSize="10" guides="1" tooltips="1" connect="1" arrows="1" fold="1" page="1" pageScale="1" pageWidth="827" pageHeight="1169" math="0" shadow="0">
      <root>
        <mxCell id="0" />
        <mxCell id="1" parent="0" />
        <mxCell id="k1Ho-n8EV5DhAOBqvkNn-3" value="" style="rounded=0;whiteSpace=wrap;html=1;" vertex="1" parent="1">
          <mxGeometry x="205" y="330" width="525" height="210" as="geometry" />
        </mxCell>
        <mxCell id="k1Ho-n8EV5DhAOBqvkNn-1" value="应用&lt;div&gt;服务&lt;/div&gt;" style="rounded=0;whiteSpace=wrap;html=1;fillColor=#dae8fc;strokeColor=none;" vertex="1" parent="1">
          <mxGeometry x="140" y="330" width="50" height="210" as="geometry" />
        </mxCell>
        <mxCell id="k1Ho-n8EV5DhAOBqvkNn-2" value="手册资料分发" style="rounded=0;whiteSpace=wrap;html=1;fillColor=#d5e8d4;strokeColor=none;" vertex="1" parent="1">
          <mxGeometry x="220" y="340" width="150" height="30" as="geometry" />
        </mxCell>
        <mxCell id="k1Ho-n8EV5DhAOBqvkNn-5" value="手册清单" style="rounded=0;whiteSpace=wrap;html=1;fillColor=#dae8fc;strokeColor=none;" vertex="1" parent="1">
          <mxGeometry x="220" y="380" width="70" height="30" as="geometry" />
        </mxCell>
        <mxCell id="k1Ho-n8EV5DhAOBqvkNn-6" value="手册分发" style="rounded=0;whiteSpace=wrap;html=1;fillColor=#dae8fc;strokeColor=none;" vertex="1" parent="1">
          <mxGeometry x="300" y="380" width="70" height="30" as="geometry" />
        </mxCell>
        <mxCell id="k1Ho-n8EV5DhAOBqvkNn-7" value="已分发手册" style="rounded=0;whiteSpace=wrap;html=1;fillColor=#dae8fc;strokeColor=none;" vertex="1" parent="1">
          <mxGeometry x="220" y="440" width="70" height="30" as="geometry" />
        </mxCell>
        <mxCell id="k1Ho-n8EV5DhAOBqvkNn-8" value="已分发TR" style="rounded=0;whiteSpace=wrap;html=1;fillColor=#dae8fc;strokeColor=none;" vertex="1" parent="1">
          <mxGeometry x="300" y="440" width="71.5" height="30" as="geometry" />
        </mxCell>
        <mxCell id="k1Ho-n8EV5DhAOBqvkNn-9" value="公告发布" style="rounded=0;whiteSpace=wrap;html=1;fillColor=#dae8fc;strokeColor=none;" vertex="1" parent="1">
          <mxGeometry x="220" y="497.36" width="70" height="30" as="geometry" />
        </mxCell>
        <mxCell id="k1Ho-n8EV5DhAOBqvkNn-10" value="作业日志" style="rounded=0;whiteSpace=wrap;html=1;fillColor=#dae8fc;strokeColor=none;" vertex="1" parent="1">
          <mxGeometry x="300" y="497.36" width="70" height="30" as="geometry" />
        </mxCell>
        <mxCell id="k1Ho-n8EV5DhAOBqvkNn-11" value="手册资料库" style="rounded=0;whiteSpace=wrap;html=1;fillColor=#d5e8d4;strokeColor=none;" vertex="1" parent="1">
          <mxGeometry x="390" y="340" width="150" height="30" as="geometry" />
        </mxCell>
        <mxCell id="k1Ho-n8EV5DhAOBqvkNn-12" value="手册搜索" style="rounded=0;whiteSpace=wrap;html=1;fillColor=#dae8fc;strokeColor=none;" vertex="1" parent="1">
          <mxGeometry x="390" y="380" width="70" height="30" as="geometry" />
        </mxCell>
        <mxCell id="k1Ho-n8EV5DhAOBqvkNn-13" value="手册列表" style="rounded=0;whiteSpace=wrap;html=1;fillColor=#dae8fc;strokeColor=none;" vertex="1" parent="1">
          <mxGeometry x="470" y="380" width="70" height="30" as="geometry" />
        </mxCell>
        <mxCell id="k1Ho-n8EV5DhAOBqvkNn-14" value="TR列表" style="rounded=0;whiteSpace=wrap;html=1;fillColor=#dae8fc;strokeColor=none;" vertex="1" parent="1">
          <mxGeometry x="390" y="440" width="70" height="30" as="geometry" />
        </mxCell>
        <mxCell id="k1Ho-n8EV5DhAOBqvkNn-15" value="插页列表" style="rounded=0;whiteSpace=wrap;html=1;fillColor=#dae8fc;strokeColor=none;" vertex="1" parent="1">
          <mxGeometry x="470" y="440" width="70" height="30" as="geometry" />
        </mxCell>
        <mxCell id="k1Ho-n8EV5DhAOBqvkNn-16" value="参考资料" style="rounded=0;whiteSpace=wrap;html=1;fillColor=#dae8fc;strokeColor=none;" vertex="1" parent="1">
          <mxGeometry x="390" y="497.36" width="70" height="30" as="geometry" />
        </mxCell>
        <mxCell id="k1Ho-n8EV5DhAOBqvkNn-17" value="公共列表" style="rounded=0;whiteSpace=wrap;html=1;fillColor=#dae8fc;strokeColor=none;" vertex="1" parent="1">
          <mxGeometry x="470" y="497.36" width="70" height="30" as="geometry" />
        </mxCell>
        <mxCell id="k1Ho-n8EV5DhAOBqvkNn-18" value="手册浏览" style="rounded=0;whiteSpace=wrap;html=1;fillColor=#d5e8d4;strokeColor=none;" vertex="1" parent="1">
          <mxGeometry x="550" y="340" width="160" height="30" as="geometry" />
        </mxCell>
        <mxCell id="k1Ho-n8EV5DhAOBqvkNn-19" value="中英文对照" style="rounded=0;whiteSpace=wrap;html=1;fillColor=#dae8fc;strokeColor=none;" vertex="1" parent="1">
          <mxGeometry x="550" y="380" width="76.15384615384616" height="27.272727272727273" as="geometry" />
        </mxCell>
        <mxCell id="k1Ho-n8EV5DhAOBqvkNn-20" value="PM&amp;amp;SNS" style="rounded=0;whiteSpace=wrap;html=1;fillColor=#dae8fc;strokeColor=none;" vertex="1" parent="1">
          <mxGeometry x="550" y="416.54545454545456" width="76.15384615384616" height="27.272727272727273" as="geometry" />
        </mxCell>
        <mxCell id="k1Ho-n8EV5DhAOBqvkNn-21" value="DM跳转" style="rounded=0;whiteSpace=wrap;html=1;fillColor=#dae8fc;strokeColor=none;" vertex="1" parent="1">
          <mxGeometry x="550" y="457.8181818181818" width="76.15384615384616" height="27.272727272727273" as="geometry" />
        </mxCell>
        <mxCell id="k1Ho-n8EV5DhAOBqvkNn-22" value="机型过滤" style="rounded=0;whiteSpace=wrap;html=1;fillColor=#dae8fc;strokeColor=none;" vertex="1" parent="1">
          <mxGeometry x="638.8461538461538" y="380" width="76.15384615384616" height="27.272727272727273" as="geometry" />
        </mxCell>
        <mxCell id="k1Ho-n8EV5DhAOBqvkNn-23" value="工卡格式打印" style="rounded=0;whiteSpace=wrap;html=1;fillColor=#dae8fc;strokeColor=none;" vertex="1" parent="1">
          <mxGeometry x="638.8461538461538" y="416.54545454545456" width="76.15384615384616" height="27.272727272727273" as="geometry" />
        </mxCell>
        <mxCell id="k1Ho-n8EV5DhAOBqvkNn-24" value="DM打印" style="rounded=0;whiteSpace=wrap;html=1;fillColor=#dae8fc;strokeColor=none;" vertex="1" parent="1">
          <mxGeometry x="638.8461538461538" y="457.8181818181818" width="76.15384615384616" height="27.272727272727273" as="geometry" />
        </mxCell>
        <mxCell id="k1Ho-n8EV5DhAOBqvkNn-25" value="动态布线" style="rounded=0;whiteSpace=wrap;html=1;fillColor=#dae8fc;strokeColor=none;" vertex="1" parent="1">
          <mxGeometry x="550" y="498.72727272727275" width="76.15384615384616" height="27.272727272727273" as="geometry" />
        </mxCell>
        <mxCell id="k1Ho-n8EV5DhAOBqvkNn-26" value="问题反馈" style="rounded=0;whiteSpace=wrap;html=1;fillColor=#dae8fc;strokeColor=none;" vertex="1" parent="1">
          <mxGeometry x="638.8461538461538" y="498.72727272727275" width="76.15384615384616" height="27.272727272727273" as="geometry" />
        </mxCell>
        <mxCell id="k1Ho-n8EV5DhAOBqvkNn-28" value="基础服务" style="rounded=0;whiteSpace=wrap;html=1;fillColor=#dae8fc;strokeColor=none;" vertex="1" parent="1">
          <mxGeometry x="141" y="552" width="50" height="100" as="geometry" />
        </mxCell>
        <mxCell id="k1Ho-n8EV5DhAOBqvkNn-29" value="" style="rounded=0;whiteSpace=wrap;html=1;" vertex="1" parent="1">
          <mxGeometry x="203.5" y="552" width="527.5" height="100" as="geometry" />
        </mxCell>
        <mxCell id="k1Ho-n8EV5DhAOBqvkNn-30" value="用户" style="rounded=0;whiteSpace=wrap;html=1;fillColor=#dae8fc;strokeColor=none;" vertex="1" parent="1">
          <mxGeometry x="251" y="562" width="90" height="30" as="geometry" />
        </mxCell>
        <mxCell id="k1Ho-n8EV5DhAOBqvkNn-31" value="角色" style="rounded=0;whiteSpace=wrap;html=1;fillColor=#dae8fc;strokeColor=none;" vertex="1" parent="1">
          <mxGeometry x="251" y="612" width="90" height="30" as="geometry" />
        </mxCell>
        <mxCell id="k1Ho-n8EV5DhAOBqvkNn-32" value="菜单" style="rounded=0;whiteSpace=wrap;html=1;fillColor=#dae8fc;strokeColor=none;" vertex="1" parent="1">
          <mxGeometry x="440" y="562" width="90" height="30" as="geometry" />
        </mxCell>
        <mxCell id="k1Ho-n8EV5DhAOBqvkNn-33" value="历史数据归档" style="rounded=0;whiteSpace=wrap;html=1;fillColor=#dae8fc;strokeColor=none;" vertex="1" parent="1">
          <mxGeometry x="440" y="612" width="90" height="30" as="geometry" />
        </mxCell>
        <mxCell id="k1Ho-n8EV5DhAOBqvkNn-34" value="资源监控" style="rounded=0;whiteSpace=wrap;html=1;fillColor=#dae8fc;strokeColor=none;" vertex="1" parent="1">
          <mxGeometry x="626" y="562" width="80" height="30" as="geometry" />
        </mxCell>
        <mxCell id="k1Ho-n8EV5DhAOBqvkNn-35" value="用户监控" style="rounded=0;whiteSpace=wrap;html=1;fillColor=#dae8fc;strokeColor=none;" vertex="1" parent="1">
          <mxGeometry x="626" y="612" width="80" height="30" as="geometry" />
        </mxCell>
        <mxCell id="k1Ho-n8EV5DhAOBqvkNn-36" value="数据存储" style="rounded=0;whiteSpace=wrap;html=1;fillColor=#dae8fc;strokeColor=none;" vertex="1" parent="1">
          <mxGeometry x="141" y="671" width="50" height="60" as="geometry" />
        </mxCell>
        <mxCell id="k1Ho-n8EV5DhAOBqvkNn-37" value="" style="rounded=0;whiteSpace=wrap;html=1;" vertex="1" parent="1">
          <mxGeometry x="202.25" y="671" width="527.5" height="60" as="geometry" />
        </mxCell>
        <mxCell id="k1Ho-n8EV5DhAOBqvkNn-38" value="数据库" style="rounded=0;whiteSpace=wrap;html=1;fillColor=#dae8fc;strokeColor=none;" vertex="1" parent="1">
          <mxGeometry x="251" y="686" width="90" height="30" as="geometry" />
        </mxCell>
        <mxCell id="k1Ho-n8EV5DhAOBqvkNn-39" value="文件存储" style="rounded=0;whiteSpace=wrap;html=1;fillColor=#dae8fc;strokeColor=none;" vertex="1" parent="1">
          <mxGeometry x="391" y="686" width="90" height="30" as="geometry" />
        </mxCell>
        <mxCell id="k1Ho-n8EV5DhAOBqvkNn-40" value="全文索引" style="rounded=0;whiteSpace=wrap;html=1;fillColor=#dae8fc;strokeColor=none;" vertex="1" parent="1">
          <mxGeometry x="511" y="686" width="90" height="30" as="geometry" />
        </mxCell>
        <mxCell id="k1Ho-n8EV5DhAOBqvkNn-41" value="缓存" style="rounded=0;whiteSpace=wrap;html=1;fillColor=#dae8fc;strokeColor=none;" vertex="1" parent="1">
          <mxGeometry x="626" y="686" width="90" height="30" as="geometry" />
        </mxCell>
        <mxCell id="k1Ho-n8EV5DhAOBqvkNn-42" value="运行环境" style="rounded=0;whiteSpace=wrap;html=1;fillColor=#dae8fc;strokeColor=none;" vertex="1" parent="1">
          <mxGeometry x="141" y="750" width="50" height="60" as="geometry" />
        </mxCell>
        <mxCell id="k1Ho-n8EV5DhAOBqvkNn-43" value="" style="rounded=0;whiteSpace=wrap;html=1;" vertex="1" parent="1">
          <mxGeometry x="202.25" y="750" width="527.5" height="60" as="geometry" />
        </mxCell>
        <mxCell id="k1Ho-n8EV5DhAOBqvkNn-44" value="虚拟机" style="rounded=0;whiteSpace=wrap;html=1;fillColor=#dae8fc;strokeColor=none;" vertex="1" parent="1">
          <mxGeometry x="292.25" y="765" width="90" height="30" as="geometry" />
        </mxCell>
        <mxCell id="k1Ho-n8EV5DhAOBqvkNn-45" value="服务器" style="rounded=0;whiteSpace=wrap;html=1;fillColor=#dae8fc;strokeColor=none;" vertex="1" parent="1">
          <mxGeometry x="432.25" y="765" width="90" height="30" as="geometry" />
        </mxCell>
        <mxCell id="k1Ho-n8EV5DhAOBqvkNn-46" value="云主机" style="rounded=0;whiteSpace=wrap;html=1;fillColor=#dae8fc;strokeColor=none;" vertex="1" parent="1">
          <mxGeometry x="552.25" y="765" width="90" height="30" as="geometry" />
        </mxCell>
        <mxCell id="k1Ho-n8EV5DhAOBqvkNn-48" value="前端框架" style="rounded=0;whiteSpace=wrap;html=1;fillColor=#dae8fc;strokeColor=none;" vertex="1" parent="1">
          <mxGeometry x="90" y="870" width="50" height="60" as="geometry" />
        </mxCell>
        <mxCell id="k1Ho-n8EV5DhAOBqvkNn-49" value="" style="rounded=0;whiteSpace=wrap;html=1;" vertex="1" parent="1">
          <mxGeometry x="151.25" y="870" width="718.75" height="60" as="geometry" />
        </mxCell>
        <mxCell id="k1Ho-n8EV5DhAOBqvkNn-50" value="VUE&lt;br&gt;前端框架" style="rounded=0;whiteSpace=wrap;html=1;fillColor=#dae8fc;strokeColor=none;" vertex="1" parent="1">
          <mxGeometry x="180" y="885" width="90" height="30" as="geometry" />
        </mxCell>
        <mxCell id="k1Ho-n8EV5DhAOBqvkNn-51" value="ElementUI&lt;br&gt;前端组件" style="rounded=0;whiteSpace=wrap;html=1;fillColor=#dae8fc;strokeColor=none;" vertex="1" parent="1">
          <mxGeometry x="301" y="885" width="90" height="30" as="geometry" />
        </mxCell>
        <mxCell id="k1Ho-n8EV5DhAOBqvkNn-52" value="&lt;article data-clipboard-cangjie=&quot;[&amp;quot;root&amp;quot;,{&amp;quot;copyFrom&amp;quot;:&amp;quot;im-native&amp;quot;},[&amp;quot;p&amp;quot;,{},[&amp;quot;span&amp;quot;,{&amp;quot;data-type&amp;quot;:&amp;quot;text&amp;quot;},[&amp;quot;span&amp;quot;,{&amp;quot;data-type&amp;quot;:&amp;quot;leaf&amp;quot;},&amp;quot;cordova&amp;quot;]]]]&quot; class=&quot;4ever-article&quot;&gt;&lt;p&gt;cordova&lt;br&gt;移动端&lt;/p&gt;&lt;/article&gt;" style="rounded=0;whiteSpace=wrap;html=1;fillColor=#dae8fc;strokeColor=none;" vertex="1" parent="1">
          <mxGeometry x="420" y="885" width="90" height="30" as="geometry" />
        </mxCell>
        <mxCell id="k1Ho-n8EV5DhAOBqvkNn-53" value="&lt;article data-clipboard-cangjie=&quot;[&amp;quot;root&amp;quot;,{&amp;quot;copyFrom&amp;quot;:&amp;quot;im-native&amp;quot;},[&amp;quot;p&amp;quot;,{},[&amp;quot;span&amp;quot;,{&amp;quot;data-type&amp;quot;:&amp;quot;text&amp;quot;},[&amp;quot;span&amp;quot;,{&amp;quot;data-type&amp;quot;:&amp;quot;leaf&amp;quot;},&amp;quot;cordova&amp;quot;]]]]&quot; class=&quot;4ever-article&quot;&gt;&lt;p&gt;localforage&lt;br&gt;本地化持久&lt;/p&gt;&lt;/article&gt;" style="rounded=0;whiteSpace=wrap;html=1;fillColor=#dae8fc;strokeColor=none;" vertex="1" parent="1">
          <mxGeometry x="548.85" y="885" width="90" height="30" as="geometry" />
        </mxCell>
        <mxCell id="k1Ho-n8EV5DhAOBqvkNn-54" value="后端技术" style="rounded=0;whiteSpace=wrap;html=1;fillColor=#dae8fc;strokeColor=none;" vertex="1" parent="1">
          <mxGeometry x="90" y="950" width="50" height="60" as="geometry" />
        </mxCell>
        <mxCell id="k1Ho-n8EV5DhAOBqvkNn-55" value="" style="rounded=0;whiteSpace=wrap;html=1;" vertex="1" parent="1">
          <mxGeometry x="151.25" y="950" width="718.75" height="60" as="geometry" />
        </mxCell>
        <mxCell id="k1Ho-n8EV5DhAOBqvkNn-56" value="JAVA&lt;br&gt;开发语言" style="rounded=0;whiteSpace=wrap;html=1;fillColor=#dae8fc;strokeColor=none;" vertex="1" parent="1">
          <mxGeometry x="170" y="965" width="90" height="30" as="geometry" />
        </mxCell>
        <mxCell id="k1Ho-n8EV5DhAOBqvkNn-57" value="Swagger&lt;br&gt;接口文档" style="rounded=0;whiteSpace=wrap;html=1;fillColor=#dae8fc;strokeColor=none;" vertex="1" parent="1">
          <mxGeometry x="270" y="965" width="90" height="30" as="geometry" />
        </mxCell>
        <mxCell id="k1Ho-n8EV5DhAOBqvkNn-58" value="&lt;article data-clipboard-cangjie=&quot;[&amp;quot;root&amp;quot;,{&amp;quot;copyFrom&amp;quot;:&amp;quot;im-native&amp;quot;},[&amp;quot;p&amp;quot;,{},[&amp;quot;span&amp;quot;,{&amp;quot;data-type&amp;quot;:&amp;quot;text&amp;quot;},[&amp;quot;span&amp;quot;,{&amp;quot;data-type&amp;quot;:&amp;quot;leaf&amp;quot;},&amp;quot;cordova&amp;quot;]]]]&quot; class=&quot;4ever-article&quot;&gt;&lt;p&gt;Spring boot&lt;br&gt;框架&lt;/p&gt;&lt;/article&gt;" style="rounded=0;whiteSpace=wrap;html=1;fillColor=#dae8fc;strokeColor=none;" vertex="1" parent="1">
          <mxGeometry x="371.5" y="965" width="90" height="30" as="geometry" />
        </mxCell>
        <mxCell id="k1Ho-n8EV5DhAOBqvkNn-59" value="&lt;article data-clipboard-cangjie=&quot;[&amp;quot;root&amp;quot;,{&amp;quot;copyFrom&amp;quot;:&amp;quot;im-native&amp;quot;},[&amp;quot;p&amp;quot;,{},[&amp;quot;span&amp;quot;,{&amp;quot;data-type&amp;quot;:&amp;quot;text&amp;quot;},[&amp;quot;span&amp;quot;,{&amp;quot;data-type&amp;quot;:&amp;quot;leaf&amp;quot;},&amp;quot;cordova&amp;quot;]]]]&quot; class=&quot;4ever-article&quot;&gt;&lt;p&gt;Spring cloud&lt;br&gt;框架&lt;/p&gt;&lt;/article&gt;" style="rounded=0;whiteSpace=wrap;html=1;fillColor=#dae8fc;strokeColor=none;" vertex="1" parent="1">
          <mxGeometry x="470" y="965" width="90" height="30" as="geometry" />
        </mxCell>
        <mxCell id="k1Ho-n8EV5DhAOBqvkNn-60" value="&lt;article data-clipboard-cangjie=&quot;[&amp;quot;root&amp;quot;,{&amp;quot;copyFrom&amp;quot;:&amp;quot;im-native&amp;quot;},[&amp;quot;p&amp;quot;,{},[&amp;quot;span&amp;quot;,{&amp;quot;data-type&amp;quot;:&amp;quot;text&amp;quot;},[&amp;quot;span&amp;quot;,{&amp;quot;data-type&amp;quot;:&amp;quot;leaf&amp;quot;},&amp;quot;cordova&amp;quot;]]]]&quot; class=&quot;4ever-article&quot;&gt;&lt;p&gt;Restful&lt;br&gt;接口规范&lt;/p&gt;&lt;/article&gt;" style="rounded=0;whiteSpace=wrap;html=1;fillColor=#dae8fc;strokeColor=none;" vertex="1" parent="1">
          <mxGeometry x="570" y="965" width="90" height="30" as="geometry" />
        </mxCell>
        <mxCell id="k1Ho-n8EV5DhAOBqvkNn-61" value="Mybatis&lt;br&gt;持久化" style="rounded=0;whiteSpace=wrap;html=1;fillColor=#dae8fc;strokeColor=none;" vertex="1" parent="1">
          <mxGeometry x="670" y="965" width="90" height="30" as="geometry" />
        </mxCell>
        <mxCell id="k1Ho-n8EV5DhAOBqvkNn-62" value="XPath&lt;br&gt;XML 数据解析" style="rounded=0;whiteSpace=wrap;html=1;fillColor=#dae8fc;strokeColor=none;" vertex="1" parent="1">
          <mxGeometry x="770" y="965" width="90" height="30" as="geometry" />
        </mxCell>
        <mxCell id="k1Ho-n8EV5DhAOBqvkNn-63" value="通用组件" style="rounded=0;whiteSpace=wrap;html=1;fillColor=#dae8fc;strokeColor=none;" vertex="1" parent="1">
          <mxGeometry x="90" y="1030" width="50" height="60" as="geometry" />
        </mxCell>
        <mxCell id="k1Ho-n8EV5DhAOBqvkNn-64" value="" style="rounded=0;whiteSpace=wrap;html=1;" vertex="1" parent="1">
          <mxGeometry x="151.25" y="1030" width="718.75" height="60" as="geometry" />
        </mxCell>
        <mxCell id="k1Ho-n8EV5DhAOBqvkNn-65" value="flowable&lt;br&gt;工作流" style="rounded=0;whiteSpace=wrap;html=1;fillColor=#dae8fc;strokeColor=none;" vertex="1" parent="1">
          <mxGeometry x="170" y="1045" width="90" height="30" as="geometry" />
        </mxCell>
        <mxCell id="k1Ho-n8EV5DhAOBqvkNn-66" value="ElasticSearch&lt;br&gt;&lt;div style=&quot;text-align: center;&quot;&gt;&lt;span style=&quot;text-align: start; background-color: transparent;&quot;&gt;搜索引擎&lt;/span&gt;&lt;span style=&quot;color: rgba(0, 0, 0, 0); font-family: monospace; font-size: 0px; text-align: start; text-wrap-mode: nowrap; background-color: transparent;&quot;&gt;%3CmxGraphModel%3E%3Croot%3E%3CmxCell%20id%3D%220%22%2F%3E%3CmxCell%20id%3D%221%22%20parent%3D%220%22%2F%3E%3CmxCell%20id%3D%222%22%20value%3D%22%E5%90%8E%E7%AB%AF%E6%8A%80%E6%9C%AF%22%20style%3D%22rounded%3D0%3BwhiteSpace%3Dwrap%3Bhtml%3D1%3BfillColor%3D%23dae8fc%3BstrokeColor%3Dnone%3B%22%20vertex%3D%221%22%20parent%3D%221%22%3E%3CmxGeometry%20x%3D%2290%22%20y%3D%22950%22%20width%3D%2250%22%20height%3D%2260%22%20as%3D%22geometry%22%2F%3E%3C%2FmxCell%3E%3CmxCell%20id%3D%223%22%20value%3D%22%22%20style%3D%22rounded%3D0%3BwhiteSpace%3Dwrap%3Bhtml%3D1%3B%22%20vertex%3D%221%22%20parent%3D%221%22%3E%3CmxGeometry%20x%3D%22151.25%22%20y%3D%22950%22%20width%3D%22718.75%22%20height%3D%2260%22%20as%3D%22geometry%22%2F%3E%3C%2FmxCell%3E%3CmxCell%20id%3D%224%22%20value%3D%22JAVA%26lt%3Bbr%26gt%3B%E5%BC%80%E5%8F%91%E8%AF%AD%E8%A8%80%22%20style%3D%22rounded%3D0%3BwhiteSpace%3Dwrap%3Bhtml%3D1%3BfillColor%3D%23dae8fc%3BstrokeColor%3Dnone%3B%22%20vertex%3D%221%22%20parent%3D%221%22%3E%3CmxGeometry%20x%3D%22170%22%20y%3D%22965%22%20width%3D%2290%22%20height%3D%2230%22%20as%3D%22geometry%22%2F%3E%3C%2FmxCell%3E%3CmxCell%20id%3D%225%22%20value%3D%22Swagger%26lt%3Bbr%26gt%3B%E6%8E%A5%E5%8F%A3%E6%96%87%E6%A1%A3%22%20style%3D%22rounded%3D0%3BwhiteSpace%3Dwrap%3Bhtml%3D1%3BfillColor%3D%23dae8fc%3BstrokeColor%3Dnone%3B%22%20vertex%3D%221%22%20parent%3D%221%22%3E%3CmxGeometry%20x%3D%22270%22%20y%3D%22965%22%20width%3D%2290%22%20height%3D%2230%22%20as%3D%22geometry%22%2F%3E%3C%2FmxCell%3E%3CmxCell%20id%3D%226%22%20value%3D%22%26lt%3Barticle%20data-clipboard-cangjie%3D%26quot%3B%5B%26amp%3Bquot%3Broot%26amp%3Bquot%3B%2C%7B%26amp%3Bquot%3BcopyFrom%26amp%3Bquot%3B%3A%26amp%3Bquot%3Bim-native%26amp%3Bquot%3B%7D%2C%5B%26amp%3Bquot%3Bp%26amp%3Bquot%3B%2C%7B%7D%2C%5B%26amp%3Bquot%3Bspan%26amp%3Bquot%3B%2C%7B%26amp%3Bquot%3Bdata-type%26amp%3Bquot%3B%3A%26amp%3Bquot%3Btext%26amp%3Bquot%3B%7D%2C%5B%26amp%3Bquot%3Bspan%26amp%3Bquot%3B%2C%7B%26amp%3Bquot%3Bdata-type%26amp%3Bquot%3B%3A%26amp%3Bquot%3Bleaf%26amp%3Bquot%3B%7D%2C%26amp%3Bquot%3Bcordova%26amp%3Bquot%3B%5D%5D%5D%5D%26quot%3B%20class%3D%26quot%3B4ever-article%26quot%3B%26gt%3B%26lt%3Bp%26gt%3BSpring%20boot%26lt%3Bbr%26gt%3B%E6%A1%86%E6%9E%B6%26lt%3B%2Fp%26gt%3B%26lt%3B%2Farticle%26gt%3B%22%20style%3D%22rounded%3D0%3BwhiteSpace%3Dwrap%3Bhtml%3D1%3BfillColor%3D%23dae8fc%3BstrokeColor%3Dnone%3B%22%20vertex%3D%221%22%20parent%3D%221%22%3E%3CmxGeometry%20x%3D%22371.5%22%20y%3D%22965%22%20width%3D%2290%22%20height%3D%2230%22%20as%3D%22geometry%22%2F%3E%3C%2FmxCell%3E%3CmxCell%20id%3D%227%22%20value%3D%22%26lt%3Barticle%20data-clipboard-cangjie%3D%26quot%3B%5B%26amp%3Bquot%3Broot%26amp%3Bquot%3B%2C%7B%26amp%3Bquot%3BcopyFrom%26amp%3Bquot%3B%3A%26amp%3Bquot%3Bim-native%26amp%3Bquot%3B%7D%2C%5B%26amp%3Bquot%3Bp%26amp%3Bquot%3B%2C%7B%7D%2C%5B%26amp%3Bquot%3Bspan%26amp%3Bquot%3B%2C%7B%26amp%3Bquot%3Bdata-type%26amp%3Bquot%3B%3A%26amp%3Bquot%3Btext%26amp%3Bquot%3B%7D%2C%5B%26amp%3Bquot%3Bspan%26amp%3Bquot%3B%2C%7B%26amp%3Bquot%3Bdata-type%26amp%3Bquot%3B%3A%26amp%3Bquot%3Bleaf%26amp%3Bquot%3B%7D%2C%26amp%3Bquot%3Bcordova%26amp%3Bquot%3B%5D%5D%5D%5D%26quot%3B%20class%3D%26quot%3B4ever-article%26quot%3B%26gt%3B%26lt%3Bp%26gt%3BSpring%20cloud%26lt%3Bbr%26gt%3B%E6%A1%86%E6%9E%B6%26lt%3B%2Fp%26gt%3B%26lt%3B%2Farticle%26gt%3B%22%20style%3D%22rounded%3D0%3BwhiteSpace%3Dwrap%3Bhtml%3D1%3BfillColor%3D%23dae8fc%3BstrokeColor%3Dnone%3B%22%20vertex%3D%221%22%20parent%3D%221%22%3E%3CmxGeometry%20x%3D%22470%22%20y%3D%22965%22%20width%3D%2290%22%20height%3D%2230%22%20as%3D%22geometry%22%2F%3E%3C%2FmxCell%3E%3CmxCell%20id%3D%228%22%20value%3D%22%26lt%3Barticle%20data-clipboard-cangjie%3D%26quot%3B%5B%26amp%3Bquot%3Broot%26amp%3Bquot%3B%2C%7B%26amp%3Bquot%3BcopyFrom%26amp%3Bquot%3B%3A%26amp%3Bquot%3Bim-native%26amp%3Bquot%3B%7D%2C%5B%26amp%3Bquot%3Bp%26amp%3Bquot%3B%2C%7B%7D%2C%5B%26amp%3Bquot%3Bspan%26amp%3Bquot%3B%2C%7B%26amp%3Bquot%3Bdata-type%26amp%3Bquot%3B%3A%26amp%3Bquot%3Btext%26amp%3Bquot%3B%7D%2C%5B%26amp%3Bquot%3Bspan%26amp%3Bquot%3B%2C%7B%26amp%3Bquot%3Bdata-type%26amp%3Bquot%3B%3A%26amp%3Bquot%3Bleaf%26amp%3Bquot%3B%7D%2C%26amp%3Bquot%3Bcordova%26amp%3Bquot%3B%5D%5D%5D%5D%26quot%3B%20class%3D%26quot%3B4ever-article%26quot%3B%26gt%3B%26lt%3Bp%26gt%3BRestful%26lt%3Bbr%26gt%3B%E6%8E%A5%E5%8F%A3%E8%A7%84%E8%8C%83%26lt%3B%2Fp%26gt%3B%26lt%3B%2Farticle%26gt%3B%22%20style%3D%22rounded%3D0%3BwhiteSpace%3Dwrap%3Bhtml%3D1%3BfillColor%3D%23dae8fc%3BstrokeColor%3Dnone%3B%22%20vertex%3D%221%22%20parent%3D%221%22%3E%3CmxGeometry%20x%3D%22570%22%20y%3D%22965%22%20width%3D%2290%22%20height%3D%2230%22%20as%3D%22geometry%22%2F%3E%3C%2FmxCell%3E%3CmxCell%20id%3D%229%22%20value%3D%22Mybatis%26lt%3Bbr%26gt%3B%E6%8C%81%E4%B9%85%E5%8C%96%22%20style%3D%22rounded%3D0%3BwhiteSpace%3Dwrap%3Bhtml%3D1%3BfillColor%3D%23dae8fc%3BstrokeColor%3Dnone%3B%22%20vertex%3D%221%22%20parent%3D%221%22%3E%3CmxGeometry%20x%3D%22670%22%20y%3D%22965%22%20width%3D%2290%22%20height%3D%2230%22%20as%3D%22geometry%22%2F%3E%3C%2FmxCell%3E%3CmxCell%20id%3D%2210%22%20value%3D%22XPath%26lt%3Bbr%26gt%3BXML%20%E6%95%B0%E6%8D%AE%E8%A7%A3%E6%9E%90%22%20style%3D%22rounded%3D0%3BwhiteSpace%3Dwrap%3Bhtml%3D1%3BfillColor%3D%23dae8fc%3BstrokeColor%3Dnone%3B%22%20vertex%3D%221%22%20parent%3D%221%22%3E%3CmxGeometry%20x%3D%22770%22%20y%3D%22965%22%20width%3D%2290%22%20height%3D%2230%22%20as%3D%22geometry%22%2F%3E%3C%2FmxCell%3E%3C%2Froot%3E%3C%2FmxGraphModel%3E&lt;/span&gt;&lt;/div&gt;" style="rounded=0;whiteSpace=wrap;html=1;fillColor=#dae8fc;strokeColor=none;" vertex="1" parent="1">
          <mxGeometry x="270" y="1045" width="90" height="30" as="geometry" />
        </mxCell>
        <mxCell id="k1Ho-n8EV5DhAOBqvkNn-67" value="&lt;article data-clipboard-cangjie=&quot;[&amp;quot;root&amp;quot;,{&amp;quot;copyFrom&amp;quot;:&amp;quot;im-native&amp;quot;},[&amp;quot;p&amp;quot;,{},[&amp;quot;span&amp;quot;,{&amp;quot;data-type&amp;quot;:&amp;quot;text&amp;quot;},[&amp;quot;span&amp;quot;,{&amp;quot;data-type&amp;quot;:&amp;quot;leaf&amp;quot;},&amp;quot;cordova&amp;quot;]]]]&quot; class=&quot;4ever-article&quot;&gt;&lt;p&gt;Seata&lt;br&gt;分布式事务&lt;/p&gt;&lt;/article&gt;" style="rounded=0;whiteSpace=wrap;html=1;fillColor=#dae8fc;strokeColor=none;" vertex="1" parent="1">
          <mxGeometry x="371.5" y="1045" width="90" height="30" as="geometry" />
        </mxCell>
        <mxCell id="k1Ho-n8EV5DhAOBqvkNn-72" value="存储" style="rounded=0;whiteSpace=wrap;html=1;fillColor=#dae8fc;strokeColor=none;" vertex="1" parent="1">
          <mxGeometry x="90" y="1100" width="50" height="60" as="geometry" />
        </mxCell>
        <mxCell id="k1Ho-n8EV5DhAOBqvkNn-73" value="" style="rounded=0;whiteSpace=wrap;html=1;" vertex="1" parent="1">
          <mxGeometry x="151.25" y="1100" width="718.75" height="60" as="geometry" />
        </mxCell>
        <mxCell id="k1Ho-n8EV5DhAOBqvkNn-74" value="Mysql&lt;br&gt;关系型数据库" style="rounded=0;whiteSpace=wrap;html=1;fillColor=#dae8fc;strokeColor=none;" vertex="1" parent="1">
          <mxGeometry x="170" y="1115" width="90" height="30" as="geometry" />
        </mxCell>
        <mxCell id="k1Ho-n8EV5DhAOBqvkNn-75" value="Minio&lt;br&gt;文件存储" style="rounded=0;whiteSpace=wrap;html=1;fillColor=#dae8fc;strokeColor=none;" vertex="1" parent="1">
          <mxGeometry x="270" y="1115" width="90" height="30" as="geometry" />
        </mxCell>
        <mxCell id="k1Ho-n8EV5DhAOBqvkNn-76" value="&lt;article data-clipboard-cangjie=&quot;[&amp;quot;root&amp;quot;,{&amp;quot;copyFrom&amp;quot;:&amp;quot;im-native&amp;quot;},[&amp;quot;p&amp;quot;,{},[&amp;quot;span&amp;quot;,{&amp;quot;data-type&amp;quot;:&amp;quot;text&amp;quot;},[&amp;quot;span&amp;quot;,{&amp;quot;data-type&amp;quot;:&amp;quot;leaf&amp;quot;},&amp;quot;cordova&amp;quot;]]]]&quot; class=&quot;4ever-article&quot;&gt;&lt;p&gt;Redis&lt;br&gt;缓存&lt;/p&gt;&lt;/article&gt;" style="rounded=0;whiteSpace=wrap;html=1;fillColor=#dae8fc;strokeColor=none;" vertex="1" parent="1">
          <mxGeometry x="371.5" y="1115" width="90" height="30" as="geometry" />
        </mxCell>
        <mxCell id="k1Ho-n8EV5DhAOBqvkNn-82" value="&lt;article data-clipboard-cangjie=&quot;[&amp;quot;root&amp;quot;,{&amp;quot;copyFrom&amp;quot;:&amp;quot;im-native&amp;quot;},[&amp;quot;p&amp;quot;,{},[&amp;quot;span&amp;quot;,{&amp;quot;data-type&amp;quot;:&amp;quot;text&amp;quot;},[&amp;quot;span&amp;quot;,{&amp;quot;data-type&amp;quot;:&amp;quot;leaf&amp;quot;},&amp;quot;cordova&amp;quot;]]]]&quot; class=&quot;4ever-article&quot;&gt;&lt;p&gt;Nacos&lt;br&gt;分布式事务&lt;/p&gt;&lt;/article&gt;" style="rounded=0;whiteSpace=wrap;html=1;fillColor=#dae8fc;strokeColor=none;" vertex="1" parent="1">
          <mxGeometry x="480" y="1045" width="90" height="30" as="geometry" />
        </mxCell>
        <mxCell id="k1Ho-n8EV5DhAOBqvkNn-83" value="部署运维" style="rounded=0;whiteSpace=wrap;html=1;fillColor=#dae8fc;strokeColor=none;" vertex="1" parent="1">
          <mxGeometry x="90" y="1180" width="50" height="60" as="geometry" />
        </mxCell>
        <mxCell id="k1Ho-n8EV5DhAOBqvkNn-84" value="" style="rounded=0;whiteSpace=wrap;html=1;" vertex="1" parent="1">
          <mxGeometry x="151.25" y="1180" width="718.75" height="60" as="geometry" />
        </mxCell>
        <mxCell id="k1Ho-n8EV5DhAOBqvkNn-85" value="Nginx&lt;br&gt;负载均衡" style="rounded=0;whiteSpace=wrap;html=1;fillColor=#dae8fc;strokeColor=none;" vertex="1" parent="1">
          <mxGeometry x="170" y="1195" width="90" height="30" as="geometry" />
        </mxCell>
        <mxCell id="k1Ho-n8EV5DhAOBqvkNn-86" value="Docker&lt;br&gt;容器" style="rounded=0;whiteSpace=wrap;html=1;fillColor=#dae8fc;strokeColor=none;" vertex="1" parent="1">
          <mxGeometry x="270" y="1195" width="90" height="30" as="geometry" />
        </mxCell>
        <mxCell id="k1Ho-n8EV5DhAOBqvkNn-87" value="&lt;article data-clipboard-cangjie=&quot;[&amp;quot;root&amp;quot;,{&amp;quot;copyFrom&amp;quot;:&amp;quot;im-native&amp;quot;},[&amp;quot;p&amp;quot;,{},[&amp;quot;span&amp;quot;,{&amp;quot;data-type&amp;quot;:&amp;quot;text&amp;quot;},[&amp;quot;span&amp;quot;,{&amp;quot;data-type&amp;quot;:&amp;quot;leaf&amp;quot;},&amp;quot;cordova&amp;quot;]]]]&quot; class=&quot;4ever-article&quot;&gt;&lt;p&gt;Docker-compose&lt;br&gt;容器管理&lt;/p&gt;&lt;/article&gt;" style="rounded=0;whiteSpace=wrap;html=1;fillColor=#dae8fc;strokeColor=none;" vertex="1" parent="1">
          <mxGeometry x="371.5" y="1195" width="98.5" height="30" as="geometry" />
        </mxCell>
        <mxCell id="k1Ho-n8EV5DhAOBqvkNn-88" value="&lt;article data-clipboard-cangjie=&quot;[&amp;quot;root&amp;quot;,{&amp;quot;copyFrom&amp;quot;:&amp;quot;im-native&amp;quot;},[&amp;quot;p&amp;quot;,{},[&amp;quot;span&amp;quot;,{&amp;quot;data-type&amp;quot;:&amp;quot;text&amp;quot;},[&amp;quot;span&amp;quot;,{&amp;quot;data-type&amp;quot;:&amp;quot;leaf&amp;quot;},&amp;quot;cordova&amp;quot;]]]]&quot; class=&quot;4ever-article&quot;&gt;&lt;p&gt;logrotate&lt;br&gt;日志工具&lt;/p&gt;&lt;/article&gt;" style="rounded=0;whiteSpace=wrap;html=1;fillColor=#dae8fc;strokeColor=none;" vertex="1" parent="1">
          <mxGeometry x="490" y="1195" width="98.5" height="30" as="geometry" />
        </mxCell>
      </root>
    </mxGraphModel>
  </diagram>
</mxfile>
